:FULLY-SPECIFIED
:FORCE-ALL-JOINTS-BE-3DOF
:DEGREES
178
root 8.11184 16.7119 -12.0658 7.78241 6.46433 -2.05995
lfemur -27.8998 8.00034 -18.1947
ltibia 61.7614 0 0
lfoot -10.9981 10.3909 0
ltoes -1.67178 0 0
rfemur -19.6714 3.39656 26.7694
rtibia 27.706 0 0
rfoot -17.9532 1.64454 0
rtoes -15.2407 0 0
lowerback -4.43076 0.674121 0.476269
upperback -1.22788 0.832506 3.4361
thorax 1.17884 0.420071 3.32024
lowerneck -16.9835 -7.61721 -15.6445
upperneck 13.6527 -9.46535 15.9273
head 8.6109 -3.90165 6.78831
lclavicle -6.35954e-15 -1.63004e-14 0
lhumerus -47.1418 -11.8827 96.4488
lradius 32.7103 0 0
lwrist 16.3818 0 0
lhand -13.694 -25.6713 0
lfingers 7.12502 0 0
lthumb 12.4252 3.95369 0
rclavicle -6.35954e-15 -1.63004e-14 0
rhumerus -39.3678 10.8047 -78.9117
rradius 41.7693 0 0
rwrist -21.0281 0 0
rhand -30.7715 -24.0312 0
rfingers 7.12502 0 0
rthumb -4.06251 -53.9714 0
179
root 8.10842 16.6976 -11.9125 7.71933 6.21253 -2.12511
lfemur -29.3705 7.86432 -18.4842
ltibia 61.3745 0 0
lfoot -12.2155 10.7688 0
ltoes -3.0265 0 0
rfemur -19.1073 3.61141 26.9738
rtibia 27.8295 0 0
rfoot -18.422 1.56332 0
rtoes -14.8846 0 0
lowerback -4.56768 0.802617 0.491068
upperback -0.742765 0.983554 3.4262
thorax 1.74654 0.488429 3.31471
lowerneck -18.2839 -7.78082 -15.3863
upperneck 13.9671 -9.57317 15.7621
head 8.94396 -3.89336 6.65724
lclavicle -9.19376e-15 -1.08964e-14 0
lhumerus -46.184 -11.6167 96.0094
lradius 32.7926 0 0
lwrist 17.0769 0 0
lhand -13.6912 -25.0386 0
lfingers 7.12502 0 0
lthumb 12.4275 4.58008 0
rclavicle -9.19376e-15 -1.08964e-14 0
rhumerus -37.8472 10.331 -78.4102
rradius 42.2505 0 0
rwrist -21.0083 0 0
rhand -30.6538 -24.2613 0
rfingers 7.12502 0 0
rthumb -3.94879 -54.2034 0
180
root 8.10647 16.6896 -11.8399 7.68624 6.08859 -2.16283
lfemur -30.0955 7.79671 -18.6192
ltibia 61.2339 0 0
lfoot -12.8759 10.993 0
ltoes -3.9595 0 0
rfemur -18.8598 3.72673 27.0806
rtibia 27.9141 0 0
rfoot -18.6521 1.50746 0
rtoes -14.6805 0 0
lowerback -4.67336 0.858806 0.494137
upperback -0.388467 1.04375 3.42638
thorax 2.16671 0.513292 3.32057
lowerneck -19.3015 -7.90953 -15.1928
upperneck 14.2054 -9.6553 15.6303
head 9.20196 -3.88655 6.55531
lclavicle -1.10306e-14 -7.17098e-15 0
lhumerus -45.4514 -11.462 95.7112
lradius 32.8269 0 0
lwrist 17.476 0 0
lhand -13.5434 -24.5989 0
lfingers 7.12502 0 0
lthumb 12.5696 5.00499 0
rclavicle -1.10306e-14 -7.17098e-15 0
rhumerus -36.8295 10.0573 -78.1116
rradius 42.443 0 0
rwrist -20.9492 0 0
rhand -30.5071 -24.3713 0
rfingers 7.12502 0 0
rthumb -3.80719 -54.3162 0
181
root 8.10637 16.6917 -11.8883 7.70227 6.15665 -2.15791
lfemur -29.7187 7.83825 -18.53
ltibia 61.5101 0 0
lfoot -12.6816 10.9469 0
ltoes -4.00776 0 0
rfemur -19.0833 3.6888 27.0395
rtibia 27.9291 0 0
rfoot -18.5255 1.50193 0
rtoes -14.7495 0 0
lowerback -4.71648 0.812651 0.480998
upperback -0.271957 0.977584 3.44129
thorax 2.31344 0.478519 3.3425
lowerneck -19.7579 -7.97371 -15.1292
upperneck 14.295 -9.69407 15.5712
head 9.31356 -3.88573 6.51286
lclavicle -1.12313e-14 -6.36111e-15 0
lhumerus -45.1518 -11.4728 95.6492
lradius 32.8186 0 0
lwrist 17.4559 0 0
lhand -13.2896 -24.5618 0
lfingers 7.12502 0 0
lthumb 12.8141 5.02488 0
rclavicle -1.12313e-14 -6.36111e-15 0
rhumerus -36.6598 10.1208 -78.1344
rradius 42.2132 0 0
rwrist -20.8456 0 0
rhand -30.3406 -24.2694 0
rfingers 7.12502 0 0
rthumb -3.64639 -54.2179 0
182
root 8.10667 16.682 -11.7299 7.63917 5.9283 -2.19167
lfemur -30.9499 7.68976 -18.7955
ltibia 60.5705 0 0
lfoot -13.4294 11.1795 0
ltoes -4.64984 0 0
rfemur -18.3742 3.84399 27.1959
rtibia 27.9025 0 0
rfoot -18.9332 1.47872 0
rtoes -14.4018 0 0
lowerback -4.66486 0.943068 0.516685
upperback -0.384348 1.15547 3.40513
thorax 2.16157 0.568995 3.28971
lowerneck -19.1356 -7.86814 -15.1779
upperneck 14.1967 -9.62604 15.6449
head 9.16423 -3.8782 6.5647
lclavicle -1.11978e-14 -6.09055e-15 0
lhumerus -45.5277 -11.3766 95.6613
lradius 32.7922 0 0
lwrist 17.5766 0 0
lhand -13.6854 -24.3476 0
lfingers 7.12502 0 0
lthumb 12.4324 5.26086 0
rclavicle -1.11978e-14 -6.09055e-15 0
rhumerus -36.5836 9.80267 -77.9508
rradius 42.8761 0 0
rwrist -21.0933 0 0
rhand -30.6989 -24.6329 0
rfingers 7.12502 0 0
rthumb -3.99232 -54.5731 0
183
root 8.1088 16.6713 -11.5279 7.55619 5.65013 -2.22575
lfemur -32.3837 7.49281 -19.1083
ltibia 59.1072 0 0
lfoot -14.1789 11.4244 0
ltoes -5.38182 0 0
rfemur -17.4175 4.02194 27.378
rtibia 27.8003 0 0
rfoot -19.4131 1.46387 0
rtoes -13.9273 0 0
lowerback -4.54011 1.10088 0.569283
upperback -0.719443 1.37871 3.35184
thorax 1.7386 0.685339 3.20755
lowerneck -17.7308 -7.6425 -15.3325
upperneck 13.9416 -9.47655 15.8116
head 8.81933 -3.86567 6.68798
lclavicle -9.95026e-15 -7.15626e-15 0
lhumerus -46.4319 -11.3136 95.8263
lradius 32.6888 0 0
lwrist 17.471 0 0
lhand -14.224 -24.1719 0
lfingers 7.12502 0 0
lthumb 11.913 5.46565 0
rclavicle -9.95026e-15 -7.15626e-15 0
rhumerus -36.9621 9.44216 -77.8361
rradius 43.7659 0 0
rwrist -21.5034 0 0
rhand -31.3136 -25.1619 0
rfingers 7.12502 0 0
rthumb -4.58588 -55.0881 0
184
root 8.11176 16.6609 -11.3249 7.47189 5.37621 -2.25326
lfemur -33.7694 7.29116 -19.4164
ltibia 57.5292 0 0
lfoot -14.852 11.6623 0
ltoes -6.05773 0 0
rfemur -16.4368 4.18869 27.5504
rtibia 27.6792 0 0
rfoot -19.884 1.45578 0
rtoes -13.4406 0 0
lowerback -4.38318 1.25795 0.625311
upperback -1.15999 1.60522 3.29274
thorax 1.1894 0.804836 3.11575
lowerneck -15.988 -7.36726 -15.5362
upperneck 13.6163 -9.2939 16.0178
head 8.38963 -3.85217 6.84215
lclavicle -8.25887e-15 -9.19382e-15 0
lhumerus -47.5704 -11.2876 96.0741
lradius 32.556 0 0
lwrist 17.2498 0 0
lhand -14.8133 -24.0332 0
lfingers 7.12502 0 0
lthumb 11.3447 5.63594 0
rclavicle -8.25887e-15 -9.19382e-15 0
rhumerus -37.597 9.09635 -77.7757
rradius 44.6907 0 0
rwrist -21.9593 0 0
rhand -32.0151 -25.7297 0
rfingers 7.12502 0 0
rthumb -5.26324 -55.64 0
185
root 8.11456 16.6527 -11.1632 7.40484 5.16058 -2.26735
lfemur -34.8562 7.12857 -19.6679
ltibia 56.2455 0 0
lfoot -15.3707 11.8741 0
ltoes -6.5316 0 0
rfemur -15.6559 4.31026 27.6778
rtibia 27.5958 0 0
rfoot -20.2646 1.4528 0
rtoes -13.0564 0 0
lowerback -4.23498 1.38612 0.671288
upperback -1.58876 1.79294 3.23915
thorax 0.658834 0.904775 3.03405
lowerneck -14.3514 -7.11286 -15.7323
upperneck 13.3074 -9.1264 16.2102
head 7.9859 -3.84177 6.98667
lclavicle -6.89396e-15 -1.18388e-14 0
lhumerus -48.6495 -11.3021 96.3342
lradius 32.4412 0 0
lwrist 17.0238 0 0
lhand -15.3612 -23.9301 0
lfingers 7.12502 0 0
lthumb 10.8162 5.7684 0
rclavicle -6.89396e-15 -1.18388e-14 0
rhumerus -38.2904 8.82233 -77.7552
rradius 45.4587 0 0
rwrist -22.3444 0 0
rhand -32.6338 -26.2096 0
rfingers 7.12502 0 0
rthumb -5.86059 -56.1061 0
186
root 8.11621 16.6481 -11.0853 7.37363 5.05728 -2.26112
lfemur -35.3935 7.04877 -19.8106
ltibia 55.6649 0 0
lfoot -15.6571 12.0408 0
ltoes -6.65745 0 0
rfemur -15.2986 4.35266 27.7249
rtibia 27.6067 0 0
rfoot -20.4735 1.45331 0
rtoes -12.8892 0 0
lowerback -4.13648 1.45727 0.693733
upperback -1.88849 1.8998 3.20238
thorax 0.29176 0.962442 2.98219
lowerneck -13.2654 -6.94978 -15.8641
upperneck 13.1016 -9.02235 16.3356
head 7.71892 -3.8385 7.08098
lclavicle -6.62582e-15 -1.47267e-14 0
lhumerus -49.3754 -11.3609 96.5364
lradius 32.392 0 0
lwrist 16.9035 0 0
lhand -15.7757 -23.861 0
lfingers 7.12502 0 0
lthumb 10.4165 5.85972 0
rclavicle -6.62582e-15 -1.47267e-14 0
rhumerus -38.8442 8.67717 -77.7601
rradius 45.8781 0 0
rwrist -22.542 0 0
rhand -32.9999 -26.4749 0
rfingers 7.12502 0 0
rthumb -6.21412 -56.3634 0
187
root 8.11571 16.6488 -11.1336 7.39681 5.12038 -2.22772
lfemur -35.1305 7.09552 -19.7927
ltibia 56.1964 0 0
lfoot -15.633 12.1431 0
ltoes -6.28932 0 0
rfemur -15.5887 4.28192 27.6564
rtibia 27.7685 0 0
rfoot -20.4294 1.45568 0
rtoes -13.0538 0 0
lowerback -4.1286 1.44324 0.679166
upperback -1.94194 1.88373 3.19374
thorax 0.233041 0.955124 2.97989
lowerneck -13.1744 -6.94848 -15.8748
upperneck 13.0853 -9.03005 16.3404
head 7.69947 -3.84643 7.08455
lclavicle -8.22472e-15 -1.74931e-14 0
lhumerus -49.454 -11.4676 96.6104
lradius 32.4557 0 0
lwrist 16.9998 0 0
lhand -15.9646 -23.8245 0
lfingers 7.12502 0 0
lthumb 10.2343 5.90658 0
rclavicle -8.22472e-15 -1.74931e-14 0
rhumerus -39.0603 8.71797 -77.7758
rradius 45.7569 0 0
rwrist -22.4354 0 0
rhand -32.9439 -26.3987 0
rfingers 7.12502 0 0
rthumb -6.16002 -56.2892 0
